{
  "accessors": [
    {
      "bufferView": 2,
      "componentType": 5126,
      "count": 1198,
      "max": [
        2.292435884475708,
        -4.414336204528809,
        2.143975019454956
      ],
      "min": [
        -0.32201099395751953,
        -4.800171852111816,
        0.8021990060806274
      ],
      "type": "VEC3"
    },
    {
      "bufferView": 2,
      "byteOffset": 14376,
      "componentType": 5126,
      "count": 1198,
      "max": [
        0.8895689845085144,
        0.998985230922699,
        0.8901234269142151
      ],
      "min": [
        -0.8901888728141785,
        -0.998985230922699,
        -0.8901234269142151
      ],
      "type": "VEC3"
    },
    {
      "bufferView": 1,
      "componentType": 5126,
      "count": 1198,
      "max": [
        1.0,
        1.0
      ],
      "min": [
        0.0,
        0.0
      ],
      "type": "VEC2"
    },
    {
      "bufferView": 0,
      "componentType": 5125,
      "count": 1974,
      "type": "SCALAR"
    },
    {
      "bufferView": 2,
      "byteOffset": 28752,
      "componentType": 5126,
      "count": 975,
      "max": [
        2.4882659912109375,
        -4.080755233764648,
        2.1383581161499023
      ],
      "min": [
        -0.3359220027923584,
        -5.069779872894287,
        0.6219450235366821
      ],
      "type": "VEC3"
    },
    {
      "bufferView": 2,
      "byteOffset": 40452,
      "componentType": 5126,
      "count": 975,
      "max": [
        0.9473945498466492,
        0.9984365105628967,
        0.9534924626350403
      ],
      "min": [
        -0.889449954032898,
        -0.9934093356132507,
        -0.9488608241081238
      ],
      "type": "VEC3"
    },
    {
      "bufferView": 1,
      "byteOffset": 9584,
      "componentType": 5126,
      "count": 975,
      "max": [
        1.0,
        1.0
      ],
      "min": [
        0.0,
        0.0
      ],
      "type": "VEC2"
    },
    {
      "bufferView": 0,
      "byteOffset": 7896,
      "componentType": 5125,
      "count": 2250,
      "type": "SCALAR"
    },
    {
      "bufferView": 2,
      "byteOffset": 52152,
      "componentType": 5126,
      "count": 284,
      "max": [
        2.282383918762207,
        -4.461896896362305,
        2.1383581161499023
      ],
      "min": [
        -0.279776006937027,
        -4.714166164398193,
        0.8092520236968994
      ],
      "type": "VEC3"
    },
    {
      "bufferView": 2,
      "byteOffset": 55560,
      "componentType": 5126,
      "count": 284,
      "max": [
        0.8894672393798828,
        0.9985818862915039,
        0.8901195526123047
      ],
      "min": [
        -0.6190977096557617,
        -0.9985746741294861,
        -0.8901195526123047
      ],
      "type": "VEC3"
    },
    {
      "bufferView": 1,
      "byteOffset": 17384,
      "componentType": 5126,
      "count": 284,
      "max": [
        0.875,
        1.0
      ],
      "min": [
        0.125,
        0.0
      ],
      "type": "VEC2"
    },
    {
      "bufferView": 0,
      "byteOffset": 16896,
      "componentType": 5125,
      "count": 426,
      "type": "SCALAR"
    },
    {
      "bufferView": 2,
      "byteOffset": 58968,
      "componentType": 5126,
      "count": 218,
      "max": [
        1.6535500288009644,
        -4.487864971160889,
        2.13988995552063
      ],
      "min": [
        -0.37512698769569397,
        -4.7787041664123535,
        1.1212780475616455
      ],
      "type": "VEC3"
    },
    {
      "bufferView": 2,
      "byteOffset": 61584,
      "componentType": 5126,
      "count": 218,
      "max": [
        0.581175684928894,
        0.9987264275550842,
        0.8901234269142151
      ],
      "min": [
        -0.8714675903320313,
        -0.9987379908561707,
        -0.8900831341743469
      ],
      "type": "VEC3"
    },
    {
      "bufferView": 1,
      "byteOffset": 19656,
      "componentType": 5126,
      "count": 218,
      "max": [
        0.875,
        1.0
      ],
      "min": [
        0.3261469900608063,
        0.0
      ],
      "type": "VEC2"
    },
    {
      "bufferView": 0,
      "byteOffset": 18600,
      "componentType": 5125,
      "count": 414,
      "type": "SCALAR"
    },
    {
      "bufferView": 2,
      "byteOffset": 64200,
      "componentType": 5126,
      "count": 302,
      "max": [
        2.221842050552368,
        -4.130661964416504,
        1.2324609756469727
      ],
      "min": [
        1.4005990028381348,
        -4.848079204559326,
        0.8006089925765991
      ],
      "type": "VEC3"
    },
    {
      "bufferView": 2,
      "byteOffset": 67824,
      "componentType": 5126,
      "count": 302,
      "max": [
        0.889449954032898,
        0.9988765120506287,
        0.9060212969779968
      ],
      "min": [
        -0.8848597407341003,
        -0.9989747405052185,
        -0.8983811736106873
      ],
      "type": "VEC3"
    },
    {
      "bufferView": 1,
      "byteOffset": 21400,
      "componentType": 5126,
      "count": 302,
      "max": [
        1.0,
        1.0
      ],
      "min": [
        0.0,
        0.0
      ],
      "type": "VEC2"
    },
    {
      "bufferView": 0,
      "byteOffset": 20256,
      "componentType": 5125,
      "count": 660,
      "type": "SCALAR"
    }
  ],
  "asset": {
    "extras": {
      "author": "Milisto (https://sketchfab.com/Milisto)",
      "license": "CC-BY-4.0 (http://creativecommons.org/licenses/by/4.0/)",
      "source": "https://sketchfab.com/3d-models/guitar-d45a9550316646e8837f95f1040d0603",
      "title": "Guitar"
    },
    "generator": "Sketchfab-12.68.0",
    "version": "2.0"
  },
  "bufferViews": [
    {
      "buffer": 0,
      "byteLength": 22896,
      "name": "floatBufferViews",
      "target": 34963
    },
    {
      "buffer": 0,
      "byteLength": 23816,
      "byteOffset": 22896,
      "byteStride": 8,
      "name": "floatBufferViews",
      "target": 34962
    },
    {
      "buffer": 0,
      "byteLength": 71448,
      "byteOffset": 46712,
      "byteStride": 12,
      "name": "floatBufferViews",
      "target": 34962
    }
  ],
  "buffers": [
    {
      "byteLength": 118160,
      "uri": "scene.bin"
    }
  ],
  "materials": [
    {
      "doubleSided": true,
      "name": "Bridge",
      "pbrMetallicRoughness": {
        "baseColorFactor": [
          0.287043,
          0.287043,
          0.287043,
          1.0
        ],
        "metallicFactor": 0.0,
        "roughnessFactor": 0.8063508326896291
      }
    },
    {
      "doubleSided": true,
      "name": "Chitarra",
      "pbrMetallicRoughness": {
        "baseColorFactor": [
          0.8,
          0.001075,
          0.0,
          1.0
        ],
        "metallicFactor": 0.0,
        "roughnessFactor": 0.7703534067870319
      }
    },
    {
      "doubleSided": true,
      "name": "Chords",
      "pbrMetallicRoughness": {
        "baseColorFactor": [
          0.067799,
          0.067799,
          0.067799,
          1.0
        ],
        "metallicFactor": 0.0,
        "roughnessFactor": 0.8063508326896291
      }
    },
    {
      "doubleSided": true,
      "name": "Manico",
      "pbrMetallicRoughness": {
        "baseColorFactor": [
          0.816276,
          0.431209,
          0.10284,
          1.0
        ],
        "metallicFactor": 0.0,
        "roughnessFactor": 0.8063508326896291
      }
    },
    {
      "doubleSided": true,
      "name": "Material.003dwd",
      "pbrMetallicRoughness": {
        "baseColorFactor": [
          0.8,
          0.796582,
          0.786379,
          1.0
        ],
        "metallicFactor": 0.0,
        "roughnessFactor": 0.8063508326896291
      }
    }
  ],
  "meshes": [
    {
      "name": "Object_0",
      "primitives": [
        {
          "attributes": {
            "NORMAL": 1,
            "POSITION": 0,
            "TEXCOORD_0": 2
          },
          "indices": 3,
          "material": 0,
          "mode": 4
        }
      ]
    },
    {
      "name": "Object_1",
      "primitives": [
        {
          "attributes": {
            "NORMAL": 5,
            "POSITION": 4,
            "TEXCOORD_0": 6
          },
          "indices": 7,
          "material": 1,
          "mode": 4
        }
      ]
    },
    {
      "name": "Object_2",
      "primitives": [
        {
          "attributes": {
            "NORMAL": 9,
            "POSITION": 8,
            "TEXCOORD_0": 10
          },
          "indices": 11,
          "material": 2,
          "mode": 4
        }
      ]
    },
    {
      "name": "Object_3",
      "primitives": [
        {
          "attributes": {
            "NORMAL": 13,
            "POSITION": 12,
            "TEXCOORD_0": 14
          },
          "indices": 15,
          "material": 3,
          "mode": 4
        }
      ]
    },
    {
      "name": "Object_4",
      "primitives": [
        {
          "attributes": {
            "NORMAL": 17,
            "POSITION": 16,
            "TEXCOORD_0": 18
          },
          "indices": 19,
          "material": 4,
          "mode": 4
        }
      ]
    }
  ],
  "nodes": [
    {
      "children": [
        1
      ],
      "matrix": [
        1.0,
        0.0,
        0.0,
        0.0,
        0.0,
        2.220446049250313e-16,
        -1.0,
        0.0,
        0.0,
        1.0,
        2.220446049250313e-16,
        0.0,
        0.0,
        0.0,
        0.0,
        1.0
      ],
      "name": "Sketchfab_model"
    },
    {
      "children": [
        2,
        3,
        4,
        5,
        6
      ],
      "name": "Guitar.obj.cleaner.materialmerger.gles"
    },
    {
      "mesh": 0,
      "name": "Object_2"
    },
    {
      "mesh": 1,
      "name": "Object_3"
    },
    {
      "mesh": 2,
      "name": "Object_4"
    },
    {
      "mesh": 3,
      "name": "Object_5"
    },
    {
      "mesh": 4,
      "name": "Object_6"
    }
  ],
  "scene": 0,
  "scenes": [
    {
      "name": "Sketchfab_Scene",
      "nodes": [
        0
      ]
    }
  ]
}
